<?xml version="1.0" encoding="UTF-8"?>
<svg version="1.1" xmlns="http://www.w3.org/2000/svg" width="177" height="181">
<path d="M0 0 C58.41 0 116.82 0 177 0 C177 59.73 177 119.46 177 181 C118.59 181 60.18 181 0 181 C0 121.27 0 61.54 0 0 Z " fill="#F48020" transform="translate(0,0)"/>
<path d="M0 0 C10.97536046 10.27128073 16.10409727 24.32082391 16.99609375 39.1484375 C17.42097218 56.03448436 14.44171561 72.72574807 2.48828125 85.5703125 C-9.2798428 96.56806274 -21.76769267 99.60889094 -37.4296875 99.75 C-39.05003906 99.77211548 -39.05003906 99.77211548 -40.703125 99.79467773 C-52.98347887 99.6385557 -62.75579298 95.92205163 -72.2421875 88.1875 C-73.19738281 87.43726563 -73.19738281 87.43726563 -74.171875 86.671875 C-82.96999079 78.92953311 -88.07303318 65.60122434 -89.2421875 54.1875 C-90.27045627 35.0147973 -89.40389717 18.17243714 -76.28125 2.90625 C-56.18534182 -16.51730437 -21.67320242 -17.51980126 0 0 Z " fill="#FEFDFC" transform="translate(122.2421875,46.8125)"/>
<path d="M0 0 C6.93660364 5.97817827 11.27698634 12.93770586 12.21875 22.13671875 C13.08259405 35.02959121 12.20157821 48.09556134 3.57421875 58.41796875 C-2.24320245 64.26426053 -8.23371963 66.28774378 -16.3125 66.3125 C-25.53551943 66.22451322 -31.3788002 64.42498999 -38.17578125 58.08203125 C-46.26831138 48.84580307 -47.44637851 37.44558188 -47.24609375 25.65234375 C-46.57821294 15.74014444 -42.73227877 7.49566483 -35.5 0.625 C-24.400072 -6.5899532 -11.0992592 -7.85967442 0 0 Z " fill="#F48121" transform="translate(103,60)"/>
</svg>

